<?xml version="1.0" encoding="UTF-8" standalone="no"?>
<svg
   xmlns:dc="http://purl.org/dc/elements/1.1/"
   xmlns:cc="http://creativecommons.org/ns#"
   xmlns:rdf="http://www.w3.org/1999/02/22-rdf-syntax-ns#"
   xmlns:svg="http://www.w3.org/2000/svg"
   xmlns="http://www.w3.org/2000/svg"
   xmlns:sodipodi="http://sodipodi.sourceforge.net/DTD/sodipodi-0.dtd"
   xmlns:inkscape="http://www.inkscape.org/namespaces/inkscape"
   version="1.1"
   id="Layer_1"
   x="0px"
   y="0px"
   width="26.943px"
   height="34.09px"
   viewBox="0 0 26.943 34.09"
   enable-background="new 0 0 26.943 34.09"
   xml:space="preserve"
   sodipodi:docname="logo-htmlacademy-hover.svg"
   inkscape:version="0.92.2 (5c3e80d, 2017-08-06)"><metadata
     id="metadata9"><rdf:RDF><cc:Work
         rdf:about=""><dc:format>image/svg+xml</dc:format><dc:type
           rdf:resource="http://purl.org/dc/dcmitype/StillImage" /></cc:Work></rdf:RDF></metadata><defs
     id="defs7" /><sodipodi:namedview
     pagecolor="#ffffff"
     bordercolor="#666666"
     borderopacity="1"
     objecttolerance="10"
     gridtolerance="10"
     guidetolerance="10"
     inkscape:pageopacity="0"
     inkscape:pageshadow="2"
     inkscape:window-width="1366"
     inkscape:window-height="706"
     id="namedview5"
     showgrid="false"
     inkscape:zoom="6.9228512"
     inkscape:cx="-10.001487"
     inkscape:cy="17.045"
     inkscape:window-x="-8"
     inkscape:window-y="-8"
     inkscape:window-maximized="1"
     inkscape:current-layer="Layer_1" /><path
     d="M13.62,0.017L13.472,0L0,1.412v24.661l13.473,8.017l13.43-7.99l0.042-0.025V1.412L13.62,0.017z M25.019,12.127L13.495,5.334 L13.494,5.23l-0.087,0.05l-0.088-0.056v0.109L1.925,12.118V3.147l11.548-1.212l11.547,1.212V12.127z M13.405,6.787L24.923,13.5 l-4.479,2.64l-7.093-4.221l-0.014,1.415l5.904,3.513l-0.86,0.507l-5.03-2.992l-0.014,1.415l3.827,2.275l-0.782,0.523l-3.031-1.787 l-0.014,1.413l1.853,1.091l-1.8,1.081L2.034,13.622L13.405,6.787z M1.925,15.127l11.411,6.791l0.016,1.044L5.41,18.234L5.395,19.65 l7.979,4.795l0.018,1.076l-7.973-4.74l-0.013,1.414l8.021,4.822l0.046,0.025l8.143-4.872l-0.011-5.177l3.415-2.036v10.021 L13.472,31.85L1.925,24.979V15.127z"
     id="path2"
     style="fill:#81b3d2;fill-opacity:1" /></svg>
